<?xml version="1.0" ?><svg id="Layer_1" style="enable-background:new 0 0 32 32;" version="1.1" viewBox="0 0 32 32" xml:space="preserve" xmlns="http://www.w3.org/2000/svg" xmlns:xlink="http://www.w3.org/1999/xlink"><style type="text/css">
	.st0{fill:none;stroke:#666666;stroke-width:2;stroke-linecap:round;stroke-linejoin:round;}
</style><title/><path class="st0" d="M23,27H9c-1.1,0-2-0.9-2-2v-2c0-3.3,2.7-6,6-6h6c3.3,0,6,2.7,6,6v2C25,26.1,24.1,27,23,27z"/><path class="st0" d="M16,5L16,5c1.7,0,3,1.3,3,3v2c0,1.7-1.3,3-3,3l0,0c-1.7,0-3-1.3-3-3V8C13,6.3,14.3,5,16,5z"/><line class="st0" x1="21" x2="21" y1="27" y2="23"/><line class="st0" x1="11" x2="11" y1="26" y2="22"/></svg>